<svg width="166" height="16" viewBox="0 0 166 16" fill="none" xmlns="http://www.w3.org/2000/svg">
<g clip-path="url(#clip0_0_6)">
<path d="M8.49218 0.392788C8.25111 0.357074 7.42075 0.285645 6.45647 0.285645C4.43861 0.285645 3.05468 1.51779 3.05468 3.77672V5.72315H0.777893V8.366H3.05468V15.1428H5.78682V8.366H8.05468L8.40289 5.72315H5.78682V4.03565C5.78682 3.27672 5.99218 2.74993 7.09039 2.74993H8.49218V0.392788Z" fill="#E8E8E8"/>
<path d="M47.5346 5.92843C47.0168 6.15165 46.4543 6.31236 45.8739 6.37486C46.4721 6.01772 46.9275 5.45522 47.1418 4.78557C46.5882 5.11593 45.9632 5.357 45.3114 5.482C44.7846 4.9195 44.0346 4.57129 43.2043 4.57129C41.6061 4.57129 40.3203 5.86593 40.3203 7.45522C40.3203 7.67843 40.3471 7.90165 40.3918 8.11593C37.9989 7.99093 35.865 6.84807 34.4453 5.09807C34.1953 5.52665 34.0525 6.01772 34.0525 6.55343C34.0525 7.55343 34.5614 8.43736 35.3382 8.95522C34.865 8.93736 34.4186 8.80343 34.0346 8.58915C34.0346 8.59807 34.0346 8.61593 34.0346 8.62486C34.0346 10.0266 35.0257 11.1874 36.3471 11.4552C36.1061 11.5177 35.8471 11.5534 35.5882 11.5534C35.4007 11.5534 35.2221 11.5356 35.0436 11.5088C35.4096 12.6516 36.4721 13.482 37.74 13.5088C36.7489 14.2856 35.5078 14.7409 34.1596 14.7409C33.9186 14.7409 33.6953 14.732 33.4632 14.7052C34.74 15.5266 36.2578 15.9999 37.8918 15.9999C43.1953 15.9999 46.0971 11.607 46.0971 7.7945C46.0971 7.6695 46.0971 7.5445 46.0882 7.4195C46.6507 7.00879 47.1418 6.49986 47.5346 5.92843Z" fill="#E8E8E8"/>
<path d="M74.7567 6.86586H71.8103V15.7141H74.7567V6.86586ZM74.9442 4.13372C74.9353 3.26765 74.3103 2.60693 73.3013 2.60693C72.3013 2.60693 71.6406 3.26765 71.6406 4.13372C71.6406 4.98193 72.2746 5.66051 73.2656 5.66051H73.2835C74.3103 5.66051 74.9531 4.98193 74.9442 4.13372ZM85.3549 10.6426C85.3549 7.92836 83.9085 6.66051 81.971 6.66051C80.3817 6.66051 79.6853 7.54443 79.3013 8.15158H79.3192V6.86586H76.3817C76.3817 6.86586 76.4174 7.69622 76.3817 15.7141H79.3192V10.7766C79.3192 10.5087 79.346 10.2498 79.4174 10.0534C79.6317 9.52658 80.1138 8.98193 80.9263 8.98193C81.9888 8.98193 82.4174 9.79443 82.4174 10.9819V15.7141H85.3549V10.6426Z" fill="#5474FD"/>
<path d="M117.848 12.3571V7.866L122.17 10.1249L117.848 12.3571ZM119.5 4.66064C116.134 4.66064 113.902 4.82136 113.902 4.82136C113.589 4.85707 112.902 4.85707 112.295 5.49993C112.295 5.49993 111.804 5.98207 111.661 7.08922C111.491 8.38386 111.5 9.6785 111.5 9.6785V10.8928C111.5 10.8928 111.491 12.1874 111.661 13.4821C111.804 14.5803 112.295 15.0714 112.295 15.0714C112.902 15.7053 113.705 15.6874 114.063 15.7499C114.063 15.7499 115.339 15.8749 119.5 15.9106C122.866 15.9106 125.098 15.741 125.098 15.741C125.411 15.7053 126.098 15.7053 126.705 15.0714C126.705 15.0714 127.196 14.5803 127.339 13.4821C127.509 12.1874 127.5 10.8928 127.5 10.8928V9.6785C127.5 9.6785 127.509 8.38386 127.339 7.08922C127.196 5.98207 126.705 5.49993 126.705 5.49993C126.098 4.85707 125.411 4.85707 125.098 4.82136C125.098 4.82136 122.866 4.66064 119.5 4.66064Z" fill="#E8E8E8"/>
<path d="M165.855 9.28585C165.855 5.50014 162.783 2.42871 158.998 2.42871C155.212 2.42871 152.141 5.50014 152.141 9.28585C152.141 12.0984 153.828 14.5091 156.248 15.5716C156.23 15.0894 156.239 14.5091 156.364 13.9912C156.364 13.9912 156.498 13.4376 157.248 10.2591C157.025 9.82157 157.025 9.16978 157.025 9.16978C157.025 8.15193 157.614 7.393 158.346 7.393C158.971 7.393 159.275 7.86621 159.275 8.42871C159.275 9.05371 158.873 9.99121 158.667 10.8573C158.498 11.5894 159.033 12.1787 159.748 12.1787C161.051 12.1787 161.926 10.5091 161.926 8.53585C161.926 7.02693 160.908 5.90193 159.069 5.90193C156.989 5.90193 155.694 7.4555 155.694 9.18764C155.694 9.78585 155.873 10.2055 156.15 10.5359C156.275 10.6876 156.292 10.7412 156.248 10.9198C156.212 11.0448 156.141 11.3484 156.105 11.4644C156.06 11.643 155.917 11.7055 155.766 11.643C154.81 11.2501 154.364 10.1966 154.364 9.018C154.364 7.07157 156.007 4.73228 159.257 4.73228C161.882 4.73228 163.605 6.63407 163.605 8.66085C163.605 11.3573 162.105 13.3662 159.9 13.3662C159.158 13.3662 158.462 12.9644 158.23 12.5091C157.828 14.0894 157.748 14.393 157.748 14.393C157.605 14.9198 157.31 15.4466 157.051 15.8573C157.676 16.0448 158.319 16.143 158.998 16.143C162.783 16.143 165.855 13.0716 165.855 9.28585Z" fill="#E8E8E8"/>
</g>
<defs>
<clipPath id="clip0_0_6">
<rect width="166" height="16" fill="white"/>
</clipPath>
</defs>
</svg>
